<svg xmlns="http://www.w3.org/2000/svg" viewBox="0 0 24 24" fill="none" stroke="#0f172a" stroke-width="2" stroke-linecap="round" stroke-linejoin="round">
  <path d="M12 21a9.002 9.002 0 0 0 8.354-5.646c.142-.358.115-.756-.073-1.096L19 12l1.28-2.258c.189-.34.216-.738.073-1.096A9.002 9.002 0 0 0 12 3a9.002 9.002 0 0 0-8.354 5.646c-.142.358-.115.756.073 1.096L5 12l-1.28 2.258c-.188.34-.215.738-.073 1.096A9.002 9.002 0 0 0 12 21z"/>
  <circle cx="12" cy="12" r="3" fill="#0d9488" stroke="none" />
</svg>